<svg width="586" height="380" viewBox="0 0 586 380" fill="none" xmlns="http://www.w3.org/2000/svg">
<rect width="586" height="380" rx="5" fill="#363940"/>
<rect width="586" height="380" rx="5" fill="black" fill-opacity="0.2"/>
<path opacity="0.4" fill-rule="evenodd" clip-rule="evenodd" d="M292.877 185C298.399 185 302.877 180.523 302.877 175C302.877 169.477 298.399 165 292.877 165C287.354 165 282.877 169.477 282.877 175C282.877 180.523 287.354 185 292.877 185ZM313 214.506L313 214.63H273L273 214.506C273 199.983 281.954 188.21 293 188.21C304.046 188.21 313 199.983 313 214.506Z" fill="#E7E3F9"/>
<path d="M36.821 303.964H40.7088V315H42.206V303.964H46.0938V302.636H36.821V303.964ZM49.6359 309.422C49.6359 307.804 50.6682 306.886 52.0748 306.886C53.415 306.886 54.224 307.732 54.224 309.205V315H55.6487V309.108C55.6487 306.723 54.3809 305.607 52.4854 305.607C51.0244 305.607 50.1913 306.216 49.7567 307.176H49.6359V302.636H48.2112V315H49.6359V309.422ZM62.1429 315.193C64.0265 315.193 65.4029 314.251 65.8375 312.851L64.4611 312.464C64.0989 313.43 63.2598 313.913 62.1429 313.913C60.4707 313.913 59.3176 312.833 59.2512 310.847H65.9824V310.243C65.9824 306.79 63.9299 305.607 61.998 305.607C59.4867 305.607 57.8205 307.587 57.8205 310.436C57.8205 313.286 59.4625 315.193 62.1429 315.193ZM59.2512 309.615C59.3478 308.172 60.3681 306.886 61.998 306.886C63.5435 306.886 64.5336 308.045 64.5336 309.615H59.2512ZM68.1497 315H69.5744V309.132C69.5744 307.876 70.5645 306.959 71.9167 306.959C72.2971 306.959 72.6895 307.031 72.786 307.055V305.607C72.623 305.594 72.2488 305.582 72.0375 305.582C70.9267 305.582 69.9608 306.21 69.6227 307.128H69.5261V305.727H68.1497V315ZM78.0804 315.193C79.964 315.193 81.3404 314.251 81.775 312.851L80.3986 312.464C80.0364 313.43 79.1973 313.913 78.0804 313.913C76.4082 313.913 75.2551 312.833 75.1887 310.847H81.9199V310.243C81.9199 306.79 79.8674 305.607 77.9355 305.607C75.4242 305.607 73.758 307.587 73.758 310.436C73.758 313.286 75.4 315.193 78.0804 315.193ZM75.1887 309.615C75.2853 308.172 76.3056 306.886 77.9355 306.886C79.481 306.886 80.4711 308.045 80.4711 309.615H75.1887ZM91.5971 315.217C93.215 315.217 94.0602 314.348 94.35 313.744H94.4224V315H95.8471V308.891C95.8471 305.945 93.6014 305.607 92.4181 305.607C91.0176 305.607 89.4238 306.089 88.6994 307.78L90.0517 308.263C90.3656 307.587 91.1081 306.862 92.4664 306.862C93.7765 306.862 94.4224 307.556 94.4224 308.746V308.794C94.4224 309.482 93.7221 309.422 92.0318 309.639C90.3113 309.863 88.4338 310.243 88.4338 312.368C88.4338 314.179 89.8343 315.217 91.5971 315.217ZM91.8145 313.938C90.6795 313.938 89.8585 313.43 89.8585 312.44C89.8585 311.354 90.8485 311.016 91.9593 310.871C92.563 310.798 94.1809 310.629 94.4224 310.339V311.643C94.4224 312.803 93.5048 313.938 91.8145 313.938ZM98.4475 315H99.8722V309.132C99.8722 307.876 100.862 306.959 102.215 306.959C102.595 306.959 102.987 307.031 103.084 307.055V305.607C102.921 305.594 102.547 305.582 102.335 305.582C101.225 305.582 100.259 306.21 99.9205 307.128H99.824V305.727H98.4475V315ZM108.378 315.193C110.262 315.193 111.638 314.251 112.073 312.851L110.696 312.464C110.334 313.43 109.495 313.913 108.378 313.913C106.706 313.913 105.553 312.833 105.487 310.847H112.218V310.243C112.218 306.79 110.165 305.607 108.233 305.607C105.722 305.607 104.056 307.587 104.056 310.436C104.056 313.286 105.698 315.193 108.378 315.193ZM105.487 309.615C105.583 308.172 106.603 306.886 108.233 306.886C109.779 306.886 110.769 308.045 110.769 309.615H105.487ZM119.166 315H120.591V309.205C120.591 307.846 121.581 306.886 122.692 306.886C123.772 306.886 124.527 307.593 124.527 308.649V315H125.976V308.963C125.976 307.768 126.725 306.886 128.028 306.886C129.043 306.886 129.912 307.424 129.912 308.794V315H131.337V308.794C131.337 306.615 130.166 305.607 128.511 305.607C127.183 305.607 126.211 306.216 125.734 307.176H125.638C125.179 306.186 124.37 305.607 123.151 305.607C121.943 305.607 121.05 306.186 120.663 307.176H120.543V305.727H119.166V315ZM136.67 315.217C138.288 315.217 139.133 314.348 139.423 313.744H139.496V315H140.92V308.891C140.92 305.945 138.675 305.607 137.491 305.607C136.091 305.607 134.497 306.089 133.773 307.78L135.125 308.263C135.439 307.587 136.181 306.862 137.54 306.862C138.85 306.862 139.496 307.556 139.496 308.746V308.794C139.496 309.482 138.795 309.422 137.105 309.639C135.384 309.863 133.507 310.243 133.507 312.368C133.507 314.179 134.908 315.217 136.67 315.217ZM136.888 313.938C135.753 313.938 134.932 313.43 134.932 312.44C134.932 311.354 135.922 311.016 137.033 310.871C137.636 310.798 139.254 310.629 139.496 310.339V311.643C139.496 312.803 138.578 313.938 136.888 313.938ZM144.945 309.422C144.945 307.804 145.948 306.886 147.312 306.886C148.634 306.886 149.437 307.75 149.437 309.205V315H150.862V309.108C150.862 306.741 149.6 305.607 147.722 305.607C146.322 305.607 145.453 306.234 145.018 307.176H144.897V305.727H143.521V315H144.945V309.422ZM154.051 318.477C155.337 318.477 156.242 317.795 156.779 316.352L160.728 305.751L159.17 305.727L156.61 313.116H156.514L153.954 305.727H152.409L155.838 315.048L155.572 315.773C155.053 317.185 154.413 317.318 153.375 317.053L153.012 318.308C153.157 318.381 153.568 318.477 154.051 318.477ZM167.394 315H168.819V309.132C168.819 307.876 169.809 306.959 171.161 306.959C171.541 306.959 171.934 307.031 172.03 307.055V305.607C171.867 305.594 171.493 305.582 171.282 305.582C170.171 305.582 169.205 306.21 168.867 307.128H168.77V305.727H167.394V315ZM177.325 315.193C179.208 315.193 180.585 314.251 181.019 312.851L179.643 312.464C179.281 313.43 178.441 313.913 177.325 313.913C175.652 313.913 174.499 312.833 174.433 310.847H181.164V310.243C181.164 306.79 179.112 305.607 177.18 305.607C174.668 305.607 173.002 307.587 173.002 310.436C173.002 313.286 174.644 315.193 177.325 315.193ZM174.433 309.615C174.529 308.172 175.55 306.886 177.18 306.886C178.725 306.886 179.715 308.045 179.715 309.615H174.433ZM186.06 315.217C187.678 315.217 188.523 314.348 188.813 313.744H188.885V315H190.31V308.891C190.31 305.945 188.064 305.607 186.881 305.607C185.48 305.607 183.887 306.089 183.162 307.78L184.515 308.263C184.828 307.587 185.571 306.862 186.929 306.862C188.239 306.862 188.885 307.556 188.885 308.746V308.794C188.885 309.482 188.185 309.422 186.495 309.639C184.774 309.863 182.897 310.243 182.897 312.368C182.897 314.179 184.297 315.217 186.06 315.217ZM186.277 313.938C185.142 313.938 184.321 313.43 184.321 312.44C184.321 311.354 185.311 311.016 186.422 310.871C187.026 310.798 188.644 310.629 188.885 310.339V311.643C188.885 312.803 187.968 313.938 186.277 313.938ZM199.479 307.804C199.032 306.488 198.03 305.607 196.195 305.607C194.239 305.607 192.79 306.717 192.79 308.287C192.79 309.567 193.55 310.424 195.253 310.822L196.798 311.185C197.734 311.402 198.175 311.849 198.175 312.489C198.175 313.286 197.329 313.938 196.001 313.938C194.836 313.938 194.106 313.436 193.852 312.44L192.5 312.778C192.832 314.354 194.13 315.193 196.025 315.193C198.181 315.193 199.648 314.016 199.648 312.416C199.648 311.124 198.839 310.309 197.185 309.905L195.808 309.567C194.709 309.295 194.214 308.927 194.214 308.214C194.214 307.418 195.06 306.838 196.195 306.838C197.438 306.838 197.951 307.526 198.199 308.166L199.479 307.804ZM205.559 315.193C208.071 315.193 209.761 313.286 209.761 310.412C209.761 307.514 208.071 305.607 205.559 305.607C203.048 305.607 201.358 307.514 201.358 310.412C201.358 313.286 203.048 315.193 205.559 315.193ZM205.559 313.913C203.652 313.913 202.782 312.271 202.782 310.412C202.782 308.553 203.652 306.886 205.559 306.886C207.467 306.886 208.336 308.553 208.336 310.412C208.336 312.271 207.467 313.913 205.559 313.913ZM213.361 309.422C213.361 307.804 214.363 306.886 215.727 306.886C217.049 306.886 217.852 307.75 217.852 309.205V315H219.277V309.108C219.277 306.741 218.015 305.607 216.138 305.607C214.737 305.607 213.868 306.234 213.433 307.176H213.312V305.727H211.936V315H213.361V309.422ZM228.448 307.804C228.002 306.488 226.999 305.607 225.164 305.607C223.208 305.607 221.759 306.717 221.759 308.287C221.759 309.567 222.52 310.424 224.222 310.822L225.768 311.185C226.704 311.402 227.144 311.849 227.144 312.489C227.144 313.286 226.299 313.938 224.971 313.938C223.806 313.938 223.075 313.436 222.822 312.44L221.47 312.778C221.802 314.354 223.1 315.193 224.995 315.193C227.15 315.193 228.617 314.016 228.617 312.416C228.617 311.124 227.808 310.309 226.154 309.905L224.778 309.567C223.679 309.295 223.184 308.927 223.184 308.214C223.184 307.418 224.029 306.838 225.164 306.838C226.408 306.838 226.921 307.526 227.169 308.166L228.448 307.804ZM239.576 305.727H237.596V303.506H236.171V305.727H234.771V306.935H236.171V312.73C236.171 314.348 237.475 315.121 238.682 315.121C239.214 315.121 239.552 315.024 239.745 314.952L239.455 313.672C239.334 313.696 239.141 313.744 238.827 313.744C238.199 313.744 237.596 313.551 237.596 312.344V306.935H239.576V305.727ZM245.386 315.193C247.898 315.193 249.588 313.286 249.588 310.412C249.588 307.514 247.898 305.607 245.386 305.607C242.875 305.607 241.185 307.514 241.185 310.412C241.185 313.286 242.875 315.193 245.386 315.193ZM245.386 313.913C243.479 313.913 242.609 312.271 242.609 310.412C242.609 308.553 243.479 306.886 245.386 306.886C247.294 306.886 248.163 308.553 248.163 310.412C248.163 312.271 247.294 313.913 245.386 313.913ZM260.287 318.67C262.509 318.67 264.296 317.656 264.296 315.266V305.727H262.919V307.2H262.774C262.46 306.717 261.881 305.607 260.07 305.607C257.727 305.607 256.11 307.466 256.11 310.315C256.11 313.213 257.8 314.855 260.046 314.855C261.857 314.855 262.436 313.793 262.75 313.286H262.871V315.169C262.871 316.714 261.784 317.415 260.287 317.415C258.603 317.415 258.011 316.527 257.631 316.014L256.496 316.811C257.075 317.783 258.216 318.67 260.287 318.67ZM260.239 313.575C258.452 313.575 257.534 312.223 257.534 310.291C257.534 308.408 258.428 306.886 260.239 306.886C261.977 306.886 262.895 308.287 262.895 310.291C262.895 312.344 261.953 313.575 260.239 313.575ZM270.791 315.193C272.675 315.193 274.051 314.251 274.486 312.851L273.11 312.464C272.747 313.43 271.908 313.913 270.791 313.913C269.119 313.913 267.966 312.833 267.9 310.847H274.631V310.243C274.631 306.79 272.578 305.607 270.646 305.607C268.135 305.607 266.469 307.587 266.469 310.436C266.469 313.286 268.111 315.193 270.791 315.193ZM267.9 309.615C267.996 308.172 269.017 306.886 270.646 306.886C272.192 306.886 273.182 308.045 273.182 309.615H267.9ZM280.831 305.727H278.851V303.506H277.426V305.727H276.025V306.935H277.426V312.73C277.426 314.348 278.73 315.121 279.937 315.121C280.469 315.121 280.807 315.024 281 314.952L280.71 313.672C280.589 313.696 280.396 313.744 280.082 313.744C279.454 313.744 278.851 313.551 278.851 312.344V306.935H280.831V305.727ZM291.257 315.193C293.044 315.193 293.647 314.082 293.961 313.575H294.13V315H295.507V302.636H294.082V307.2H293.961C293.647 306.717 293.092 305.607 291.281 305.607C288.938 305.607 287.32 307.466 287.32 310.388C287.32 313.334 288.938 315.193 291.257 315.193ZM291.45 313.913C289.663 313.913 288.745 312.344 288.745 310.364C288.745 308.408 289.639 306.886 291.45 306.886C293.188 306.886 294.106 308.287 294.106 310.364C294.106 312.464 293.164 313.913 291.45 313.913ZM302.081 315.193C304.592 315.193 306.282 313.286 306.282 310.412C306.282 307.514 304.592 305.607 302.081 305.607C299.569 305.607 297.879 307.514 297.879 310.412C297.879 313.286 299.569 315.193 302.081 315.193ZM302.081 313.913C300.173 313.913 299.304 312.271 299.304 310.412C299.304 308.553 300.173 306.886 302.081 306.886C303.988 306.886 304.858 308.553 304.858 310.412C304.858 312.271 303.988 313.913 302.081 313.913ZM310.243 315H311.643L313.672 307.876H313.817L315.845 315H317.246L320.071 305.727H318.574L316.569 312.803H316.473L314.517 305.727H312.996L311.015 312.827H310.919L308.915 305.727H307.417L310.243 315ZM323.379 309.422C323.379 307.804 324.381 306.886 325.746 306.886C327.068 306.886 327.871 307.75 327.871 309.205V315H329.295V309.108C329.295 306.741 328.034 305.607 326.156 305.607C324.756 305.607 323.886 306.234 323.452 307.176H323.331V305.727H321.954V315H323.379V309.422ZM339.409 315.217C341.027 315.217 341.872 314.348 342.161 313.744H342.234V315H343.659V308.891C343.659 305.945 341.413 305.607 340.23 305.607C338.829 305.607 337.235 306.089 336.511 307.78L337.863 308.263C338.177 307.587 338.92 306.862 340.278 306.862C341.588 306.862 342.234 307.556 342.234 308.746V308.794C342.234 309.482 341.534 309.422 339.843 309.639C338.123 309.863 336.245 310.243 336.245 312.368C336.245 314.179 337.646 315.217 339.409 315.217ZM339.626 313.938C338.491 313.938 337.67 313.43 337.67 312.44C337.67 311.354 338.66 311.016 339.771 310.871C340.375 310.798 341.992 310.629 342.234 310.339V311.643C342.234 312.803 341.316 313.938 339.626 313.938ZM347.684 309.422C347.684 307.804 348.686 306.886 350.05 306.886C351.372 306.886 352.175 307.75 352.175 309.205V315H353.6V309.108C353.6 306.741 352.338 305.607 350.461 305.607C349.06 305.607 348.191 306.234 347.756 307.176H347.635V305.727H346.259V315H347.684V309.422ZM359.705 315.193C361.492 315.193 362.095 314.082 362.409 313.575H362.578V315H363.955V302.636H362.53V307.2H362.409C362.095 306.717 361.54 305.607 359.729 305.607C357.387 305.607 355.769 307.466 355.769 310.388C355.769 313.334 357.387 315.193 359.705 315.193ZM359.898 313.913C358.111 313.913 357.193 312.344 357.193 310.364C357.193 308.408 358.087 306.886 359.898 306.886C361.637 306.886 362.554 308.287 362.554 310.364C362.554 312.464 361.612 313.913 359.898 313.913ZM43.8722 333.804C43.4254 332.488 42.4233 331.607 40.5881 331.607C38.6321 331.607 37.1832 332.717 37.1832 334.287C37.1832 335.567 37.9439 336.424 39.6463 336.822L41.1918 337.185C42.1275 337.402 42.5682 337.849 42.5682 338.489C42.5682 339.286 41.723 339.938 40.3949 339.938C39.2298 339.938 38.4993 339.436 38.2457 338.44L36.8935 338.778C37.2255 340.354 38.5234 341.193 40.419 341.193C42.5742 341.193 44.0412 340.016 44.0412 338.416C44.0412 337.124 43.2322 336.309 41.5781 335.905L40.2017 335.567C39.103 335.295 38.608 334.927 38.608 334.214C38.608 333.418 39.4531 332.838 40.5881 332.838C41.8317 332.838 42.3448 333.526 42.5923 334.166L43.8722 333.804ZM50.2185 331.727H48.2384V329.506H46.8137V331.727H45.4131V332.935H46.8137V338.73C46.8137 340.348 48.1176 341.121 49.325 341.121C49.8563 341.121 50.1943 341.024 50.3875 340.952L50.0977 339.672C49.977 339.696 49.7838 339.744 49.4699 339.744C48.8421 339.744 48.2384 339.551 48.2384 338.344V332.935H50.2185V331.727ZM55.0903 341.217C56.7082 341.217 57.5534 340.348 57.8431 339.744H57.9156V341H59.3403V334.891C59.3403 331.945 57.0945 331.607 55.9113 331.607C54.5107 331.607 52.917 332.089 52.1926 333.78L53.5448 334.263C53.8588 333.587 54.6013 332.862 55.9596 332.862C57.2696 332.862 57.9156 333.556 57.9156 334.746V334.794C57.9156 335.482 57.2153 335.422 55.5249 335.639C53.8044 335.863 51.9269 336.243 51.9269 338.368C51.9269 340.179 53.3275 341.217 55.0903 341.217ZM55.3076 339.938C54.1727 339.938 53.3517 339.43 53.3517 338.44C53.3517 337.354 54.3417 337.016 55.4525 336.871C56.0562 336.798 57.6741 336.629 57.9156 336.339V337.643C57.9156 338.803 56.998 339.938 55.3076 339.938ZM61.9407 341H63.3654V335.132C63.3654 333.876 64.3555 332.959 65.7077 332.959C66.0881 332.959 66.4805 333.031 66.5771 333.055V331.607C66.4141 331.594 66.0398 331.582 65.8285 331.582C64.7177 331.582 63.7518 332.21 63.4137 333.128H63.3171V331.727H61.9407V341ZM72.8796 331.727H70.8995V329.506H69.4748V331.727H68.0742V332.935H69.4748V338.73C69.4748 340.348 70.7788 341.121 71.9862 341.121C72.5174 341.121 72.8555 341.024 73.0487 340.952L72.7589 339.672C72.6381 339.696 72.445 339.744 72.131 339.744C71.5032 339.744 70.8995 339.551 70.8995 338.344V332.935H72.8796V331.727ZM83.8366 331.727H81.8565V329.506H80.4318V331.727H79.0312V332.935H80.4318V338.73C80.4318 340.348 81.7358 341.121 82.9432 341.121C83.4744 341.121 83.8125 341.024 84.0057 340.952L83.7159 339.672C83.5952 339.696 83.402 339.744 83.0881 339.744C82.4602 339.744 81.8565 339.551 81.8565 338.344V332.935H83.8366V331.727ZM89.6472 341.193C92.1586 341.193 93.8489 339.286 93.8489 336.412C93.8489 333.514 92.1586 331.607 89.6472 331.607C87.1358 331.607 85.4455 333.514 85.4455 336.412C85.4455 339.286 87.1358 341.193 89.6472 341.193ZM89.6472 339.913C87.7395 339.913 86.8702 338.271 86.8702 336.412C86.8702 334.553 87.7395 332.886 89.6472 332.886C91.5549 332.886 92.4242 334.553 92.4242 336.412C92.4242 338.271 91.5549 339.913 89.6472 339.913ZM104.548 344.67C106.769 344.67 108.556 343.656 108.556 341.266V331.727H107.18V333.2H107.035C106.721 332.717 106.142 331.607 104.331 331.607C101.988 331.607 100.37 333.466 100.37 336.315C100.37 339.213 102.061 340.855 104.306 340.855C106.117 340.855 106.697 339.793 107.011 339.286H107.132V341.169C107.132 342.714 106.045 343.415 104.548 343.415C102.864 343.415 102.272 342.527 101.892 342.014L100.757 342.811C101.336 343.783 102.477 344.67 104.548 344.67ZM104.5 339.575C102.713 339.575 101.795 338.223 101.795 336.291C101.795 334.408 102.688 332.886 104.5 332.886C106.238 332.886 107.156 334.287 107.156 336.291C107.156 338.344 106.214 339.575 104.5 339.575ZM115.052 341.193C116.936 341.193 118.312 340.251 118.747 338.851L117.37 338.464C117.008 339.43 116.169 339.913 115.052 339.913C113.38 339.913 112.227 338.833 112.16 336.847H118.892V336.243C118.892 332.79 116.839 331.607 114.907 331.607C112.396 331.607 110.73 333.587 110.73 336.436C110.73 339.286 112.372 341.193 115.052 341.193ZM112.16 335.615C112.257 334.172 113.277 332.886 114.907 332.886C116.453 332.886 117.443 334.045 117.443 335.615H112.16ZM125.092 331.727H123.111V329.506H121.687V331.727H120.286V332.935H121.687V338.73C121.687 340.348 122.991 341.121 124.198 341.121C124.729 341.121 125.067 341.024 125.261 340.952L124.971 339.672C124.85 339.696 124.657 339.744 124.343 339.744C123.715 339.744 123.111 339.551 123.111 338.344V332.935H125.092V331.727ZM135.517 341.193C137.304 341.193 137.908 340.082 138.222 339.575H138.391V341H139.767V328.636H138.343V333.2H138.222C137.908 332.717 137.353 331.607 135.541 331.607C133.199 331.607 131.581 333.466 131.581 336.388C131.581 339.334 133.199 341.193 135.517 341.193ZM135.71 339.913C133.924 339.913 133.006 338.344 133.006 336.364C133.006 334.408 133.899 332.886 135.71 332.886C137.449 332.886 138.367 334.287 138.367 336.364C138.367 338.464 137.425 339.913 135.71 339.913ZM146.462 341.193C148.346 341.193 149.722 340.251 150.157 338.851L148.78 338.464C148.418 339.43 147.579 339.913 146.462 339.913C144.79 339.913 143.637 338.833 143.571 336.847H150.302V336.243C150.302 332.79 148.249 331.607 146.317 331.607C143.806 331.607 142.14 333.587 142.14 336.436C142.14 339.286 143.782 341.193 146.462 341.193ZM143.571 335.615C143.667 334.172 144.687 332.886 146.317 332.886C147.863 332.886 148.853 334.045 148.853 335.615H143.571ZM152.469 344.477H153.894V339.575H154.014C154.328 340.082 154.932 341.193 156.719 341.193C159.037 341.193 160.655 339.334 160.655 336.388C160.655 333.466 159.037 331.607 156.695 331.607C154.884 331.607 154.328 332.717 154.014 333.2H153.845V331.727H152.469V344.477ZM153.87 336.364C153.87 334.287 154.787 332.886 156.526 332.886C158.337 332.886 159.23 334.408 159.23 336.364C159.23 338.344 158.313 339.913 156.526 339.913C154.811 339.913 153.87 338.464 153.87 336.364ZM162.828 341H164.253V335.132C164.253 333.876 165.243 332.959 166.595 332.959C166.976 332.959 167.368 333.031 167.465 333.055V331.607C167.302 331.594 166.927 331.582 166.716 331.582C165.605 331.582 164.639 332.21 164.301 333.128H164.205V331.727H162.828V341ZM172.759 341.193C174.643 341.193 176.019 340.251 176.454 338.851L175.077 338.464C174.715 339.43 173.876 339.913 172.759 339.913C171.087 339.913 169.934 338.833 169.867 336.847H176.599V336.243C176.599 332.79 174.546 331.607 172.614 331.607C170.103 331.607 168.437 333.587 168.437 336.436C168.437 339.286 170.079 341.193 172.759 341.193ZM169.867 335.615C169.964 334.172 170.984 332.886 172.614 332.886C174.16 332.886 175.15 334.045 175.15 335.615H169.867ZM185.334 333.804C184.887 332.488 183.885 331.607 182.05 331.607C180.094 331.607 178.645 332.717 178.645 334.287C178.645 335.567 179.406 336.424 181.108 336.822L182.654 337.185C183.589 337.402 184.03 337.849 184.03 338.489C184.03 339.286 183.185 339.938 181.857 339.938C180.692 339.938 179.961 339.436 179.708 338.44L178.355 338.778C178.687 340.354 179.985 341.193 181.881 341.193C184.036 341.193 185.503 340.016 185.503 338.416C185.503 337.124 184.694 336.309 183.04 335.905L181.664 335.567C180.565 335.295 180.07 334.927 180.07 334.214C180.07 333.418 180.915 332.838 182.05 332.838C183.294 332.838 183.807 333.526 184.054 334.166L185.334 333.804ZM194.216 333.804C193.769 332.488 192.767 331.607 190.932 331.607C188.976 331.607 187.527 332.717 187.527 334.287C187.527 335.567 188.288 336.424 189.99 336.822L191.536 337.185C192.471 337.402 192.912 337.849 192.912 338.489C192.912 339.286 192.067 339.938 190.739 339.938C189.574 339.938 188.843 339.436 188.589 338.44L187.237 338.778C187.569 340.354 188.867 341.193 190.763 341.193C192.918 341.193 194.385 340.016 194.385 338.416C194.385 337.124 193.576 336.309 191.922 335.905L190.545 335.567C189.447 335.295 188.952 334.927 188.952 334.214C188.952 333.418 189.797 332.838 190.932 332.838C192.175 332.838 192.689 333.526 192.936 334.166L194.216 333.804ZM200.417 341.193C202.301 341.193 203.677 340.251 204.112 338.851L202.736 338.464C202.373 339.43 201.534 339.913 200.417 339.913C198.745 339.913 197.592 338.833 197.526 336.847H204.257V336.243C204.257 332.79 202.204 331.607 200.272 331.607C197.761 331.607 196.095 333.587 196.095 336.436C196.095 339.286 197.737 341.193 200.417 341.193ZM197.526 335.615C197.622 334.172 198.642 332.886 200.272 332.886C201.818 332.886 202.808 334.045 202.808 335.615H197.526ZM209.926 341.193C211.712 341.193 212.316 340.082 212.63 339.575H212.799V341H214.176V328.636H212.751V333.2H212.63C212.316 332.717 211.761 331.607 209.95 331.607C207.607 331.607 205.989 333.466 205.989 336.388C205.989 339.334 207.607 341.193 209.926 341.193ZM210.119 339.913C208.332 339.913 207.414 338.344 207.414 336.364C207.414 334.408 208.308 332.886 210.119 332.886C211.857 332.886 212.775 334.287 212.775 336.364C212.775 338.464 211.833 339.913 210.119 339.913ZM224.493 341.217C226.111 341.217 226.956 340.348 227.245 339.744H227.318V341H228.743V334.891C228.743 331.945 226.497 331.607 225.314 331.607C223.913 331.607 222.319 332.089 221.595 333.78L222.947 334.263C223.261 333.587 224.004 332.862 225.362 332.862C226.672 332.862 227.318 333.556 227.318 334.746V334.794C227.318 335.482 226.618 335.422 224.927 335.639C223.207 335.863 221.329 336.243 221.329 338.368C221.329 340.179 222.73 341.217 224.493 341.217ZM224.71 339.938C223.575 339.938 222.754 339.43 222.754 338.44C222.754 337.354 223.744 337.016 224.855 336.871C225.459 336.798 227.076 336.629 227.318 336.339V337.643C227.318 338.803 226.4 339.938 224.71 339.938ZM231.536 341H232.913V339.575H233.082C233.396 340.082 233.999 341.193 235.786 341.193C238.104 341.193 239.722 339.334 239.722 336.388C239.722 333.466 238.104 331.607 235.762 331.607C233.951 331.607 233.396 332.717 233.082 333.2H232.961V328.636H231.536V341ZM232.937 336.364C232.937 334.287 233.854 332.886 235.593 332.886C237.404 332.886 238.298 334.408 238.298 336.364C238.298 338.344 237.38 339.913 235.593 339.913C233.879 339.913 232.937 338.464 232.937 336.364ZM245.669 341.193C248.18 341.193 249.87 339.286 249.87 336.412C249.87 333.514 248.18 331.607 245.669 331.607C243.157 331.607 241.467 333.514 241.467 336.412C241.467 339.286 243.157 341.193 245.669 341.193ZM245.669 339.913C243.761 339.913 242.892 338.271 242.892 336.412C242.892 334.553 243.761 332.886 245.669 332.886C247.576 332.886 248.446 334.553 248.446 336.412C248.446 338.271 247.576 339.913 245.669 339.913ZM257.889 337.209C257.889 338.947 256.561 339.744 255.498 339.744C254.315 339.744 253.47 338.875 253.47 337.523V331.727H252.045V337.619C252.045 339.986 253.301 341.121 255.04 341.121C256.44 341.121 257.358 340.372 257.792 339.43H257.889V341H259.314V331.727H257.889V337.209ZM265.956 331.727H263.976V329.506H262.551V331.727H261.15V332.935H262.551V338.73C262.551 340.348 263.855 341.121 265.062 341.121C265.594 341.121 265.932 341.024 266.125 340.952L265.835 339.672C265.714 339.696 265.521 339.744 265.207 339.744C264.579 339.744 263.976 339.551 263.976 338.344V332.935H265.956V331.727ZM273.798 344.477C275.084 344.477 275.989 343.795 276.526 342.352L280.475 331.751L278.917 331.727L276.357 339.116H276.261L273.701 331.727H272.156L275.585 341.048L275.319 341.773C274.8 343.185 274.16 343.318 273.122 343.053L272.759 344.308C272.904 344.381 273.315 344.477 273.798 344.477ZM285.795 341.193C288.306 341.193 289.996 339.286 289.996 336.412C289.996 333.514 288.306 331.607 285.795 331.607C283.283 331.607 281.593 333.514 281.593 336.412C281.593 339.286 283.283 341.193 285.795 341.193ZM285.795 339.913C283.887 339.913 283.018 338.271 283.018 336.412C283.018 334.553 283.887 332.886 285.795 332.886C287.702 332.886 288.572 334.553 288.572 336.412C288.572 338.271 287.702 339.913 285.795 339.913ZM298.015 337.209C298.015 338.947 296.687 339.744 295.624 339.744C294.441 339.744 293.596 338.875 293.596 337.523V331.727H292.171V337.619C292.171 339.986 293.427 341.121 295.165 341.121C296.566 341.121 297.484 340.372 297.918 339.43H298.015V341H299.44V331.727H298.015V337.209ZM302.049 341H303.474V335.132C303.474 333.876 304.464 332.959 305.816 332.959C306.196 332.959 306.589 333.031 306.685 333.055V331.607C306.522 331.594 306.148 331.582 305.937 331.582C304.826 331.582 303.86 332.21 303.522 333.128H303.426V331.727H302.049V341ZM319.724 333.804C319.277 332.488 318.275 331.607 316.44 331.607C314.484 331.607 313.035 332.717 313.035 334.287C313.035 335.567 313.795 336.424 315.498 336.822L317.043 337.185C317.979 337.402 318.42 337.849 318.42 338.489C318.42 339.286 317.575 339.938 316.246 339.938C315.081 339.938 314.351 339.436 314.097 338.44L312.745 338.778C313.077 340.354 314.375 341.193 316.271 341.193C318.426 341.193 319.893 340.016 319.893 338.416C319.893 337.124 319.084 336.309 317.43 335.905L316.053 335.567C314.955 335.295 314.46 334.927 314.46 334.214C314.46 333.418 315.305 332.838 316.44 332.838C317.683 332.838 318.196 333.526 318.444 334.166L319.724 333.804ZM322.037 341H323.462V331.727H322.037V341ZM322.762 330.182C323.317 330.182 323.776 329.747 323.776 329.216C323.776 328.685 323.317 328.25 322.762 328.25C322.206 328.25 321.748 328.685 321.748 329.216C321.748 329.747 322.206 330.182 322.762 330.182ZM330.104 331.727H328.124V329.506H326.699V331.727H325.299V332.935H326.699V338.73C326.699 340.348 328.003 341.121 329.211 341.121C329.742 341.121 330.08 341.024 330.273 340.952L329.983 339.672C329.863 339.696 329.67 339.744 329.356 339.744C328.728 339.744 328.124 339.551 328.124 338.344V332.935H330.104V331.727ZM338.091 337.209C338.091 338.947 336.763 339.744 335.7 339.744C334.517 339.744 333.672 338.875 333.672 337.523V331.727H332.247V337.619C332.247 339.986 333.503 341.121 335.242 341.121C336.642 341.121 337.56 340.372 337.994 339.43H338.091V341H339.516V331.727H338.091V337.209ZM344.854 341.217C346.472 341.217 347.317 340.348 347.607 339.744H347.679V341H349.104V334.891C349.104 331.945 346.858 331.607 345.675 331.607C344.274 331.607 342.681 332.089 341.956 333.78L343.309 334.263C343.622 333.587 344.365 332.862 345.723 332.862C347.033 332.862 347.679 333.556 347.679 334.746V334.794C347.679 335.482 346.979 335.422 345.289 335.639C343.568 335.863 341.691 336.243 341.691 338.368C341.691 340.179 343.091 341.217 344.854 341.217ZM345.071 339.938C343.936 339.938 343.115 339.43 343.115 338.44C343.115 337.354 344.105 337.016 345.216 336.871C345.82 336.798 347.438 336.629 347.679 336.339V337.643C347.679 338.803 346.762 339.938 345.071 339.938ZM355.737 331.727H353.757V329.506H352.332V331.727H350.932V332.935H352.332V338.73C352.332 340.348 353.636 341.121 354.844 341.121C355.375 341.121 355.713 341.024 355.906 340.952L355.616 339.672C355.496 339.696 355.302 339.744 354.988 339.744C354.361 339.744 353.757 339.551 353.757 338.344V332.935H355.737V331.727ZM357.88 341H359.305V331.727H357.88V341ZM358.605 330.182C359.16 330.182 359.619 329.747 359.619 329.216C359.619 328.685 359.16 328.25 358.605 328.25C358.049 328.25 357.59 328.685 357.59 329.216C357.59 329.747 358.049 330.182 358.605 330.182ZM365.681 341.193C368.193 341.193 369.883 339.286 369.883 336.412C369.883 333.514 368.193 331.607 365.681 331.607C363.17 331.607 361.48 333.514 361.48 336.412C361.48 339.286 363.17 341.193 365.681 341.193ZM365.681 339.913C363.774 339.913 362.904 338.271 362.904 336.412C362.904 334.553 363.774 332.886 365.681 332.886C367.589 332.886 368.458 334.553 368.458 336.412C368.458 338.271 367.589 339.913 365.681 339.913ZM373.483 335.422C373.483 333.804 374.485 332.886 375.849 332.886C377.171 332.886 377.974 333.75 377.974 335.205V341H379.399V335.108C379.399 332.741 378.137 331.607 376.26 331.607C374.859 331.607 373.99 332.234 373.555 333.176H373.434V331.727H372.058V341H373.483V335.422ZM383.041 341.097C383.638 341.097 384.127 340.608 384.127 340.01C384.127 339.412 383.638 338.923 383.041 338.923C382.443 338.923 381.954 339.412 381.954 340.01C381.954 340.608 382.443 341.097 383.041 341.097Z" fill="#B5BDCF"/>
</svg>
